<?xml version="1.0" encoding="UTF-8"?>
<!DOCTYPE svg PUBLIC "-//W3C//DTD SVG 1.1//EN" "http://www.w3.org/Graphics/SVG/1.1/DTD/svg11.dtd">
<!-- Creator: CorelDRAW 2019 (64-Bit) -->
<svg xmlns="http://www.w3.org/2000/svg" xml:space="preserve" width="54.676mm" height="10.1131mm" version="1.1" style="shape-rendering:geometricPrecision; text-rendering:geometricPrecision; image-rendering:optimizeQuality; fill-rule:evenodd; clip-rule:evenodd"
viewBox="0 0 2390.22 442.11"
 xmlns:xlink="http://www.w3.org/1999/xlink">
 <defs>
  <style type="text/css">
   <![CDATA[
    .fil0 {fill:#3241B4}
   ]]>
  </style>
 </defs>
 <g id="Слой_x0020_1">
  <metadata id="CorelCorpID_0Corel-Layer"/>
  <circle class="fil0" cx="484.28" cy="383.82" r="58.28"/>
  <path class="fil0" d="M436.22 264.12c24.21,-119.3 -52.81,-235.45 -172.11,-259.66 -119.16,-24.21 -235.45,52.81 -259.66,171.97 -24.21,119.3 52.81,235.45 172.11,259.66 119.3,24.35 235.59,-52.81 259.66,-171.97zm-236.54 57.87c-56.23,-11.36 -92.48,-66.22 -81.13,-122.31 11.35,-56.23 66.22,-92.48 122.31,-81.13 56.23,11.36 92.48,66.22 81.13,122.31 -3.01,15.05 -9.3,28.59 -17.65,40.36 3.83,10.67 11.63,21.34 25.72,29.82 0,0 -22.85,5.47 -46.92,-8.07 -22.99,17.37 -52.94,25.17 -83.45,19.02z"/>
  <path class="fil0" d="M686.88 179.91c0,-16.38 -5.54,-28.91 -16.38,-37.59 -10.85,-8.43 -26.99,-12.77 -48.19,-12.77 -20.72,0 -36.63,4.34 -47.71,13.01 -11.08,8.67 -16.38,21.2 -16.38,37.35l0 3.62c0,16.38 5.3,28.68 16.14,37.11 10.85,8.43 26.75,12.53 47.95,12.53 42.89,0 64.34,-16.63 64.34,-49.64l0.24 -3.62 0 0 0 0zm-2.41 -86.5c17.59,8.19 31.33,19.76 40.97,34.7 9.64,14.94 14.46,32.53 14.46,52.53l0 2.17c0,23.62 -6.5,43.38 -19.76,59.76 -13.25,16.38 -31.56,27.71 -55.18,33.97l16.14 35.66 0 7.95 -52.77 0 -17.35 -38.55c-21.44,-1.45 -40,-6.26 -55.9,-14.7 -15.9,-8.44 -28.19,-19.76 -36.87,-34.22 -8.68,-14.46 -13.01,-31.09 -13.01,-49.88l0 -2.17c0,-20 4.82,-37.59 14.46,-52.53 9.64,-14.94 23.38,-26.51 40.97,-34.7 17.83,-8.19 38.31,-12.29 61.68,-12.29 23.86,0 44.34,4.1 62.16,12.29l0 0 0 0z"/>
  <path class="fil0" d="M880.13 198.47l-26.75 -63.86 -26.75 63.86 53.49 0c0,0 0,0 0,0zm84.82 71.56l0 7.95 -51.57 0 -14.94 -35.66 -90.12 0 -14.94 35.66 -51.56 0 0 -7.95 82.65 -185.05 57.59 0c0,0 82.89,185.05 82.89,185.05z"/>
  <polygon class="fil0" points="1159.88,131 1048.32,231.24 1159.88,231.24 1159.88,277.75 977.96,277.75 977.96,231.48 1089.53,131.24 977.96,131.24 977.96,84.73 1159.88,84.74 "/>
  <path class="fil0" d="M1372.89 180.88c10.61,9.4 16.15,21.45 16.15,36.38l0 2.89c0,20.24 -8.44,35.42 -25.54,46.02 -17.11,10.36 -42.17,15.66 -75.66,15.66 -66.99,-0.48 -100.72,-22.65 -100.72,-66.51l0 -1.21 51.08 0 0 1.21c0,14.46 16.63,21.69 50.12,21.69 16.38,0 28.67,-1.45 36.38,-4.34 7.95,-2.89 11.81,-7.47 11.81,-13.73l0 -3.13c0,-5.78 -3.86,-9.88 -11.81,-12.53 -7.95,-2.65 -20.24,-3.86 -37.11,-3.86l-38.07 0 0 -36.38 54.94 -33.01 -113.25 0 0 -44.82 192.04 0 0 44.82 -57.35 32.53c20.48,2.89 36.14,9.15 46.99,18.31l0 0 0 0z"/>
  <path class="fil0" d="M1573.37 215.58c0,-6.75 -3.86,-11.81 -11.57,-14.94 -7.71,-3.13 -20,-4.82 -36.87,-4.82 -13.5,0 -25.06,1.21 -34.94,3.37 -9.64,2.17 -17.11,5.54 -22.17,9.64 1.44,9.39 6.75,16.63 16.38,21.44 9.39,4.82 22.89,7.23 40.48,7.23 32.29,0 48.43,-6.99 48.43,-20.48l0.24 -1.45 0 0 0 0zm27.23 -45.78c16.63,10.36 24.82,25.06 24.82,44.58l0 2.17c0,20.73 -8.91,36.87 -26.75,48.19 -17.83,11.33 -43.13,17.11 -75.9,17.11 -22.17,0 -41.21,-3.13 -57.35,-9.4 -16.14,-6.26 -28.43,-15.18 -36.87,-26.99 -8.43,-11.81 -12.77,-25.78 -12.77,-42.17l0 -39.03c0,-26.26 9.39,-46.75 28.19,-61.21 18.79,-14.46 45.3,-21.68 79.52,-21.68 31.32,0 55.66,5.78 72.77,17.11 17.11,11.57 25.78,27.71 25.78,48.67l0 1.21 -50.61 0 0 -1.21c0,-6.75 -4.34,-11.8 -13.01,-15.66 -8.67,-3.86 -20.48,-5.78 -35.66,-5.78 -18.07,0 -31.8,3.13 -41.2,9.64 -9.4,6.5 -14.22,15.9 -14.22,28.19l0 5.06c14.46,-9.4 35.18,-14.22 61.69,-14.22 31.32,0 54.94,5.06 71.56,15.42l0 0 0 0z"/>
  <path class="fil0" d="M1830.71 166.18c16.63,11.08 25.06,26.51 25.06,46.75l0 2.89c0,43.86 -33.74,66.02 -101.2,66.02 -66.99,0 -100.72,-20.48 -100.72,-61.69l0 -1.68 51.08 0 0 1.68c0,5.78 4.1,9.88 12.77,12.77 8.43,2.89 20.72,4.34 37.11,4.34 32.29,0 48.43,-6.99 48.43,-20.97l0 -3.13c0,-6.26 -4.34,-11.09 -13.01,-14.46 -8.67,-3.37 -20.96,-5.06 -36.87,-5.06 -29.88,0 -46.02,3.86 -48.91,11.81l-50.6 0 5.78 -120 183.13 0 0 46.51 -139.76 0 -1.45 30.12c14.46,-7.95 33.73,-11.81 58.07,-11.81 30.85,-0.72 54.46,4.82 71.08,15.9l0 0 0 0z"/>
  <path class="fil0" d="M1887.34 273.65c-5.54,-5.3 -8.19,-12.29 -8.19,-20.72 0,-8.44 2.65,-15.18 8.19,-20.49 5.54,-5.3 12.53,-7.71 21.2,-7.71 8.91,0 15.9,2.65 21.45,7.71 5.3,5.3 8.19,12.05 8.19,20.49 0,8.67 -2.65,15.66 -8.19,20.96 -5.3,5.3 -12.53,7.95 -21.45,7.95 -8.67,0 -15.66,-2.65 -21.2,-8.19l0 0 0 0z"/>
  <polygon class="fil0" points="2185.65,92.93 2101.55,169.8 2181.07,270.03 2181.07,277.99 2121.55,277.99 2060.83,200.15 2030.71,228.59 2030.71,277.99 1978.67,277.99 1978.67,84.98 2030.71,84.98 2030.71,169.07 2123,84.98 2185.65,84.98 2185.65,92.93 "/>
  <polygon class="fil0" points="2390.22,131 2278.66,231.24 2390.22,231.24 2390.22,277.75 2208.3,277.75 2208.3,231.48 2319.86,131.24 2208.3,131.24 2208.3,84.73 2390.22,84.74 "/>
  <polygon class="fil0" points="852.26,319.15 823.78,349.31 851.41,380.54 851.41,382.02 840.23,382.02 815.13,353.96 801.63,353.96 801.63,382.02 791.92,382.02 791.92,353.96 778.42,353.96 753.31,382.02 741.92,382.02 741.92,380.54 769.56,349.31 740.86,319.15 740.86,317.67 752.47,317.67 778.42,345.09 791.71,345.09 791.71,317.67 801.41,317.67 801.41,345.09 814.71,345.09 840.66,317.67 852.26,317.67 852.26,319.15 "/>
  <path class="fil0" d="M910.07 356.91l-13.93 -29.54 -13.92 29.54c-0.21,0 27.85,0 27.85,0zm21.73 23.63l0 1.48 -10.13 0 -7.59 -16.24 -36.29 -0 -7.6 16.24 -9.91 0 0 -1.48 30.38 -62.87 10.76 0 30.38 62.87 0 0 0 0z"/>
  <path class="fil0" d="M1015.35 373.37l0 21.73 -9.91 0 0 -13.08 -10.13 0 0 -27.85 -42.62 0 0 27.85 -9.91 0 0 -64.35 9.91 0 0 27.85 42.62 0 0 -27.85 9.91 0 0 55.7c0,0 10.13,0 10.13,0z"/>
  <path class="fil0" d="M1071.04 356.91l-13.92 -29.54 -13.92 29.54 27.85 0zm21.73 23.63l0 1.48 -9.92 0 -7.59 -16.24 -36.29 -0 -7.59 16.24 -9.92 0 0 -1.48 30.38 -62.87 10.76 0c-0.21,0 30.17,62.87 30.17,62.87z"/>
  <path class="fil0" d="M1202.7 373.37l0 21.73 -9.7 0 0 -13.08 -5.7 0 -25.74 -28.27 -14.35 0 0 28.27 -9.91 0 0 -64.35 9.91 0 0 27.43 14.56 0 27.43 -27.43 11.81 0 0 1.48 -30.38 30.17 21.52 24.05 10.55 0c0,0 0,0 0,0z"/>
  <path class="fil0" d="M1257.76 356.91l-13.92 -29.54 -13.93 29.54 27.85 0c0,0 0,0 0,0zm21.94 23.63l0 1.48 -10.13 0 -7.59 -16.24 -36.29 -0 -7.59 16.24 -9.92 0 0 -1.48 30.38 -62.87 10.76 0 30.38 62.87 0 0z"/>
  <path class="fil0" d="M1352.28 354.8c1.9,2.32 2.74,4.85 2.74,8.02l0 1.26c0,6.12 -2.96,10.97 -8.86,14.35 -5.91,3.37 -14.35,5.06 -25.32,5.06 -11.82,0 -20.89,-2.32 -27.01,-6.75 -6.12,-4.43 -9.28,-10.97 -9.28,-19.62l0 -0.84 9.91 0 0 0.84c0,5.91 2.11,10.34 6.54,13.08 4.22,2.74 10.97,4.22 20.25,4.22 8.23,0 14.14,-0.84 18.15,-2.53 4.01,-1.69 5.91,-4.43 5.91,-8.02l0 -1.05c0,-2.96 -1.48,-5.06 -4.43,-6.54 -2.96,-1.27 -8.02,-1.9 -14.98,-1.9l-17.3 -0 0 -8.65 16.45 0c6.54,0 11.18,-0.63 14.14,-2.11 2.95,-1.27 4.43,-3.58 4.43,-6.75l0 -1.05c0,-6.75 -7.81,-10.13 -23.21,-10.13 -8.65,0 -14.98,1.48 -19.2,4.22 -4.22,2.96 -6.33,7.17 -6.33,13.08l0 0.84 -9.92 -0 0 -0.84c0,-8.65 2.96,-15.19 9.29,-19.62 6.12,-4.64 14.98,-6.75 26.37,-6.75 10.55,0 18.57,1.69 24.26,4.85 5.7,3.37 8.65,7.8 8.65,13.71l0 1.26c0,5.91 -2.95,10.13 -9.07,12.87 3.37,1.27 5.91,3.17 7.81,5.49l0 0 0 0z"/>
  <path class="fil0" d="M1407.97 356.91l-13.92 -29.54 -13.92 29.54 27.85 0 0 0zm21.95 23.63l0 1.48 -9.92 0 -7.59 -16.24 -36.29 -0 -7.59 16.24 -10.13 0 0 -1.48 30.38 -62.87 10.76 0 30.38 62.87 0 0 0 0z"/>
  <path class="fil0" d="M1506.29 373.37l0 21.73 -9.7 0 0 -13.08 -5.7 0 -25.74 -28.27 -14.34 0 0 28.27 -9.92 0 0 -64.35 9.92 0 0 27.43 14.55 0 27.43 -27.43 11.82 0 0 1.48 -30.59 30.17 21.52 24.05 10.76 0c0,0 0,0 0,0z"/>
  <path class="fil0" d="M1530.13 379.27c-5.7,-2.74 -9.92,-6.33 -13.08,-11.39 -2.95,-4.85 -4.64,-10.55 -4.64,-17.09l0 -1.69c0,-6.54 1.47,-12.24 4.64,-17.09 2.96,-4.85 7.39,-8.65 13.08,-11.39 5.7,-2.75 12.24,-4.01 19.83,-4.01 6.75,0 12.87,1.05 18.36,3.37 5.49,2.32 9.7,5.49 12.87,9.5 3.17,4 4.64,8.44 4.64,13.5l0 0.84 -9.92 0 0 -0.84c0,-3.37 -1.05,-6.12 -3.37,-8.86 -2.32,-2.53 -5.27,-4.64 -9.29,-6.12 -4,-1.48 -8.44,-2.32 -13.5,-2.32 -8.86,0 -15.61,2.11 -20.25,6.12 -4.64,4.01 -7.17,9.92 -7.17,17.3l0 1.9c0,7.38 2.32,13.29 7.17,17.3 4.64,4.01 11.6,6.12 20.25,6.12 5.06,0 9.5,-0.63 13.5,-2.11 4.01,-1.48 6.96,-3.58 9.29,-6.12 2.11,-2.53 3.37,-5.49 3.37,-8.86l0 -1.06 9.91 0 0 1.05c0,5.06 -1.47,9.5 -4.64,13.5 -3.17,4.01 -7.39,7.17 -12.87,9.5 -5.49,2.32 -11.6,3.37 -18.36,3.37 -7.81,-0.42 -14.35,-1.9 -19.83,-4.43l0 0 0 0z"/>
  <polygon class="fil0" points="1590.26,326.32 1590.26,317.67 1655.66,317.67 1655.66,326.32 1628.03,326.32 1628.03,382.01 1618.32,382.02 1618.32,326.32 1590.26,326.32 "/>
  <path class="fil0" d="M1701.02 356.91l-13.92 -29.54 -13.92 29.54 27.85 0 0 0zm21.73 23.63l0 1.48 -9.91 0 -7.6 -16.24 -36.29 -0 -7.59 16.24 -10.13 0 0 -1.48 30.38 -62.87 10.76 0 30.38 62.87 0 0 0 0z"/>
  <polygon class="fil0" points="1743.64,317.67 1743.64,345.51 1786.26,345.51 1786.26,317.67 1795.96,317.67 1795.96,382.02 1786.26,382.02 1786.26,354.17 1743.64,354.17 1743.64,382.02 1733.72,382.02 1733.72,317.67 "/>
  <polygon class="fil0" points="1913.9,317.67 1913.9,382.02 1903.99,382.02 1903.99,326.32 1863.26,326.32 1863.26,382.01 1853.35,382.02 1853.35,317.67 1913.9,317.67 1913.9,317.67 "/>
  <path class="fil0" d="M1985.63 367.88c4.64,-4.22 6.96,-9.91 6.96,-17.09l0 -1.48c0,-7.38 -2.32,-13.08 -6.96,-17.3 -4.64,-4.22 -11.39,-6.33 -19.83,-6.33 -8.44,0 -14.98,2.11 -19.83,6.33 -4.64,4.22 -7.17,9.91 -7.17,17.3l0 1.48c0,7.38 2.32,13.08 7.17,17.09 4.64,4.22 11.39,6.12 19.83,6.12 8.65,0 15.19,-1.9 19.83,-6.12zm-39.03 11.39c-5.49,-2.74 -9.92,-6.54 -12.87,-11.39 -2.96,-4.85 -4.43,-10.76 -4.43,-17.3l0 -1.27c0,-6.54 1.48,-12.45 4.43,-17.3 2.95,-4.85 7.38,-8.86 12.87,-11.39 5.49,-2.75 12.02,-4.01 19.41,-4.01 7.38,0 13.92,1.27 19.41,4.01 5.49,2.74 9.7,6.54 12.87,11.39 2.95,4.85 4.43,10.76 4.43,17.3l0 1.27c0,6.54 -1.48,12.45 -4.43,17.3 -2.96,4.85 -7.39,8.65 -12.87,11.39 -5.49,2.75 -12.03,4.01 -19.41,4.01 -7.39,0 -13.92,-1.48 -19.41,-4.01z"/>
  <path class="fil0" d="M2067.49 345.51c2.32,-1.69 3.59,-4.43 3.59,-7.59l0 -1.27c0,-3.17 -1.27,-5.7 -3.59,-7.59 -2.32,-1.9 -5.7,-2.74 -10.12,-2.74l-29.54 0 0 21.73 29.54 0c4.43,0.21 7.8,-0.85 10.12,-2.54zm-9.91 -27.85c7.17,0 12.87,1.69 17.09,5.06 4.22,3.37 6.33,8.02 6.33,13.92l0 1.27c0,5.91 -2.11,10.55 -6.33,13.92 -4.22,3.37 -9.91,5.07 -17.09,5.07l-29.75 0 0 25.11 -9.91 0 0 -64.35 39.66 0 0 0 0 0z"/>
  <polygon class="fil0" points="2086.48,326.32 2086.48,317.67 2151.88,317.67 2151.88,326.32 2124.03,326.32 2124.03,382.01 2114.33,382.02 2114.33,326.32 2086.48,326.32 2086.48,326.32 "/>
  <path class="fil0" d="M2197.04 356.91l-13.93 -29.54 -13.92 29.54 27.85 0 0 0zm21.94 23.63l0 1.48 -9.92 0 -7.59 -16.24 -36.29 -0 -7.6 16.24 -10.12 0 0 -1.48 30.38 -62.87 10.76 0 30.38 62.87 0 0z"/>
  <path class="fil0" d="M2290.71 382.02l-9.91 0 0 -55.7 -34.39 0 -0.42 29.75c-0.21,8.86 -1.9,15.4 -5.06,19.62 -3.17,4.01 -8.23,6.12 -14.98,6.12l-4.22 0 0 -8.65 2.53 0c3.17,0 5.49,-0.63 7.38,-1.69 1.9,-1.05 3.17,-2.95 4.01,-5.48 0.84,-2.54 1.27,-5.91 1.27,-10.34l0.63 -37.98 53.16 0 0 64.35 0 0 0 0z"/>
  <path class="fil0" d="M2389.66 382.02l-9.92 0 0 -64.35 9.92 0 0 64.35zm-32.07 -11.39c2.32,-1.9 3.59,-4.22 3.59,-7.6l0 -1.48c0,-3.17 -1.27,-5.91 -3.59,-7.59 -2.32,-1.9 -5.7,-2.74 -9.91,-2.74l-28.48 0 0 22.15 28.48 0c4.22,0 7.59,-0.84 9.91,-2.74l0 0 0 0zm-38.4 -52.96l0 24.9 28.69 0c7.17,0 13.08,1.69 17.09,5.06 4.22,3.37 6.33,8.02 6.33,14.14l0 1.48c0,5.91 -2.11,10.55 -6.33,13.92 -4.22,3.37 -9.91,5.06 -17.09,5.06l-38.4 0 0 -64.35 9.71 -0.21 0 0 0 0z"/>
 </g>
</svg>
